# xmcd
#
# Track frame offsets:
#	150
#	13950
#	27935
#	42267
#	53802
#	67495
#	78810
#	90565
#	102490
#	114510
#	126270
#	140585
#	151612
#	163847
#	174220
#	185497
#	196712
#	211130
#	221565
#	234715
#	245765
#	260127
#	274162
#
# Disc length: 3852 seconds
# Revision: 3
# Processed by: cddbd v1.5.2PL0 Copyright (c) Steve Scherf et al.
# Submitted via: dBpowerAMP V12.0
#
DISCID=4f0f0a17
DTITLE=John Lee Hooker - Vol.6: Detroit 1953-1954
DYEAR=2005
DGENRE=Blues
TTITLE0=Too Much Boogie
TTITLE1=Need Somebody
TTITLE2=I Wonder Little Darling
TTITLE3=Jump Me
TTITLE4=My Baby Don't Love Me
TTITLE5=Blue Monday (I Ain't Got Nobody)
TTITLE6=Misbelieving Baby (My Baby Put Me Down)
TTITLE7=Love My Baby
TTITLE8=Wobbling Baby
TTITLE9=Pouring Down Rain
TTITLE10=Goin' South
TTITLE11=Real Real Gone
TTITLE12=Lovin' Guitar Man
TTITLE13=Stuttering Blues
TTITLE14=Hook's Boogie (I Ain't Got Nobody)
TTITLE15=Sleepy Blues (Misbelieving Baby)
TTITLE16=I Came to See You Baby
TTITLE17=I'm a Boogie Man
TTITLE18=Down Child
TTITLE19=Gotta Boogie
TTITLE20=Bad Boy
TTITLE21=Half a Stranger
TTITLE22=You Receive Me
EXTD=
EXTT0=
EXTT1=
EXTT2=
EXTT3=
EXTT4=
EXTT5=
EXTT6=
EXTT7=
EXTT8=
EXTT9=
EXTT10=
EXTT11=
EXTT12=
EXTT13=
EXTT14=
EXTT15=
EXTT16=
EXTT17=
EXTT18=
EXTT19=
EXTT20=
EXTT21=
EXTT22=
PLAYORDER=
